<?xml version="1.0" standalone="yes"?>
<svg width="1414" height="592">
<path style="fill:#bed3ec; stroke:none;" d="M0 0L0 71L50 71C55.0471 71 65.0634 72.913 69.3665 69.9722C76.5446 65.0667 76 56.5322 76 49L76 0L0 0z"/>
<path style="fill:#abadaf; stroke:none;" d="M76 0L76 62L77 62L77 20L76 0z"/>
<path style="fill:#bfd5ef; stroke:none;" d="M77 0L77 61L78 61L78 20L77 0z"/>
<path style="fill:#a8a9a8; stroke:none;" d="M78 0L78 61C82.647 57.6486 81 50.21 81 45L81 0L78 0z"/>
<path style="fill:#b1bbc5; stroke:none;" d="M81 0L81 59C89.7126 57.403 88 50.2377 88 43L88 0L85 0L85 57L84 57L84 0L81 0z"/>
<path style="fill:#bed3ec; stroke:none;" d="M84 0L84 57L85 57L85 18L84 0z"/>
<path style="fill:#bfd5f0; stroke:none;" d="M88 0L88 56L89 56L89 18L88 0z"/>
<path style="fill:#afb6bd; stroke:none;" d="M89 0L89 41L91 56C86.8999 38.7786 95.7716 16.1376 89 0z"/>
<path style="fill:#bccfe5; stroke:none;" d="M90 0L90 55L91 55L91 18L90 0z"/>
<path style="fill:#b4c0cc; stroke:none;" d="M91 0L91 55C96.6723 53.1174 95 45.9883 95 41L95 0L91 0z"/>
<path style="fill:#bed2ea; stroke:none;" d="M95 0L95 54L96 54L96 18L95 0z"/>
<path style="fill:#a9acac; stroke:none;" d="M96 0L96 54L97 54L97 18L96 0z"/>
<path style="fill:#bed3ec; stroke:none;" d="M97 0L97 53L98 53L98 17L97 0z"/>
<path style="fill:#b0b8c0; stroke:none;" d="M98 0L98 39L100 53L98 0z"/>
<path style="fill:#bed2eb; stroke:none;" d="M99 0L99 52L101 52L101 0L99 0z"/>
<path style="fill:#a7a6a3; stroke:none;" d="M101 0L101 39C101 43.0884 99.147 50.9601 104 52L104 51C101.055 47.1121 102 41.7156 102 37C102 26.3661 105.108 9.78918 101 0z"/>
<path style="fill:#b7c6d6; stroke:none;" d="M102 0L102 51L105 51L105 0L102 0z"/>
<path style="fill:#c0d8f3; stroke:none;" d="M105 0L105 51L106 51C106 36.6892 110.508 13.1273 105 0z"/>
<path style="fill:#b0b8c1; stroke:none;" d="M106 0L106 51L107 51C111.429 36.0147 108 15.6394 108 0L106 0z"/>
<path style="fill:#b9c9dc; stroke:none;" d="M108 0L108 50L110 50L110 0L108 0z"/>
<path style="fill:#a0998e; stroke:none;" d="M110 0L110 38C110 41.9855 108.273 48.987 113 50L113 49C103.991 37.1089 115.716 13.6222 110 0z"/>
<path style="fill:#afb6bd; stroke:none;" d="M111 0L111 49L112 49C112 35.2122 116.309 12.652 111 0z"/>
<path style="fill:#c0d7f2; stroke:none;" d="M112 0L112 49L113 49C113 35.2122 117.309 12.652 112 0z"/>
<path style="fill:#afb6bc; stroke:none;" d="M113 0L113 49L114 49C114 35.2121 118.309 12.652 113 0z"/>
<path style="fill:#9a8f7c; stroke:none;" d="M114 0L114 49L119 49L119 0L118 0L118 48L115 48C115 34.4736 119.209 12.4143 114 0z"/>
<path style="fill:#bacde1; stroke:none;" d="M115 0L115 48L117 48L117 0L115 0z"/>
<path style="fill:#a8aaa9; stroke:none;" d="M117 0L117 48L118 48C118 34.4736 122.209 12.4143 117 0z"/>
<path style="fill:#bbcee4; stroke:none;" d="M119 0L119 47L121 47L121 0L119 0z"/>
<path style="fill:#adb3b7; stroke:none;" d="M121 0L121 33L119 47L119 48C123.583 47.0179 122 40.8797 122 37C122 27.5294 125.631 8.0376 121 0z"/>
<path style="fill:#9a8e7b; stroke:none;" d="M122 0L122 48L123 48C123 34.4736 127.209 12.4143 122 0z"/>
<path style="fill:#a6a4a0; stroke:none;" d="M123 0L123 47L124 47C124 33.735 128.11 12.1766 123 0z"/>
<path style="fill:#c2daf8; stroke:none;" d="M124 0L124 47L125 47C125 33.735 129.11 12.1766 124 0z"/>
<path style="fill:#b5c4d9; stroke:none;" d="M125 0L125 47C130.153 44.9286 129 39.8354 129 35L129 0L125 0z"/>
<path style="fill:#9b999e; stroke:none;" d="M129 0L129 33L131 45L129 0z"/>
<path style="fill:#bbcde4; stroke:none;" d="M130 0L130 44L131 44C131 31.5195 134.81 11.4634 130 0z"/>
<path style="fill:#9f9fa7; stroke:none;" d="M131 0L131 44L132 44C132 31.5195 135.81 11.4634 131 0z"/>
<path style="fill:#b3c0d3; stroke:none;" d="M132 0L132 43C143.716 38.0908 134.402 19.9241 133.147 11.9568C132.509 7.90149 133.616 3.85071 132 0z"/>
<path style="fill:#bed3ec; stroke:none;" d="M133 0L138 39C144.346 37.1684 155.334 32.5961 159 27L143 21L143 20C158.72 20 163 16.1038 163 0L133 0z"/>
<path style="fill:#9a8e7c; stroke:none;" d="M163 0L163 13L166 12L163 0z"/>
<path style="fill:#abafb0; stroke:none;" d="M164 0L164 11C169.957 10.0059 168.999 5.02277 169 0L164 0z"/>
<path style="fill:#bdd2eb; stroke:none;" d="M169 0L169 10L170 10L169 0z"/>
<path style="fill:#a9abab; stroke:none;" d="M170 0L170 10L174 10L174 0L170 0z"/>
<path style="fill:#bed3ed; stroke:none;" d="M174 0L174 10L176 10L176 0L174 0z"/>
<path style="fill:#b0b9c2; stroke:none;" d="M176 0L176 11L184 15L184 0L176 0z"/>
<path style="fill:#bfd5ee; stroke:none;" d="M184 0C184 5.828 181.61 15.7667 189 17L189 0L184 0z"/>
<path style="fill:#abb3c2; stroke:none;" d="M189 0L189 17L192 17L192 0L191 0L191 16L190 16L189 0z"/>
<path style="fill:#c0d6f0; stroke:none;" d="M190 0L190 16L191 16L190 0z"/>
<path style="fill:#bccfe7; stroke:none;" d="M192 0L192 16L194 16L194 0L192 0z"/>
<path style="fill:#a0a2aa; stroke:none;" d="M194 0L194 16L195 16L194 0z"/>
<path style="fill:#b9cbe2; stroke:none;" d="M195 0L195 15L197 15L197 0L195 0z"/>
<path style="fill:#99959a; stroke:none;" d="M197 0L199 15L197 0z"/>
<path style="fill:#b9cbe2; stroke:none;" d="M198 0L198 14L200 14L200 0L198 0z"/>
<path style="fill:#99969a; stroke:none;" d="M200 0C200 4.20544 198.036 12.9363 203 14L203 13L200 0z"/>
<path style="fill:#bccfe7; stroke:none;" d="M201 0L201 13L203 13L203 0L201 0z"/>
<path style="fill:#a0a1a9; stroke:none;" d="M203 0L203 13L204 13L203 0z"/>
<path style="fill:#887872; stroke:none;" d="M204 0L203 14C206.259 11.1522 205.58 3.76642 204 0z"/>
<path style="fill:#bed3ec; stroke:none;" d="M205 0L205 13C211.39 11.2131 211.947 5.97461 212 0L205 0z"/>
<path style="fill:#9d9a94; stroke:none;" d="M212 0L212 6C214.104 3.68463 214.59 2.0639 212 0z"/>
<path style="fill:#b4c0cd; stroke:none;" d="M214 3L220 1C217.238 -0.591492 214.714 -0.331482 214 3z"/>
<path style="fill:#754423; stroke:none;" d="M309 34C299.095 66.4655 267.552 41.3427 246 36.6682C236.635 34.637 222.25 35.8507 214.015 31.4275C206.83 27.5685 205.664 20.3029 207 13C201.502 14.0358 193.446 17.5189 188 16.7314C176.246 15.0317 173.841 6.54205 161 14C165.928 28.4438 179.475 32.6064 189 43L179 46L179 48C194.042 58.1478 209.852 67.6519 227 73.7824C234.935 76.6191 242.356 80.0457 250 75C242.085 85.9719 232.811 82.0912 222 78.0502C203.007 70.951 184.825 60.1916 169 47.5509C164.652 44.0774 157.894 34.2951 152.791 32.956C146.193 31.2245 134.586 42.1548 129 45.088C111.451 54.3035 90.4187 52.5222 73 64C75.3669 69.7598 78.1567 76.3851 85 77.7176C92.674 79.2119 100.908 73.5887 108 71.4136C118.015 68.3418 128.525 65.1834 139 64.1697C148.429 63.2573 156.37 64.9058 165 60C163.137 66.2758 158.353 74.348 151.999 76.8519C147.376 78.6738 142.143 76.6418 139 81C147.045 81 154.117 81.8992 162 83.3889C167.569 84.4413 172.622 86.1347 178 87.8842C184.787 90.0921 207.455 103.07 189.999 108.343C184.194 110.097 177.458 105.968 172 104.283C158.603 100.148 134.718 102.413 132 85C124.847 90.9903 126.073 101.516 134.093 106.467C139.846 110.017 147.536 109.337 154 110.299C166.316 112.133 179.093 122.67 191 116C181.728 128.773 170.05 120.435 158 117.039C150.025 114.792 141.252 114.001 133 114L133 118C125.314 114.301 109.811 116.194 117.228 127.907C121.626 134.85 133.917 140.057 141 144L131.187 125.025L134 119C153.226 130.34 170.646 143.613 185.91 160C195.596 170.398 203.227 178.19 196 192L220 200C220.08 208.903 225.275 215.994 228.719 224C233.091 234.161 236.454 245.129 238.539 256C239.753 262.327 238.209 273.518 242.995 278.397C246.944 282.422 258.757 281 264 281C264 254.105 252.423 231.736 244 207C269.087 214.936 296.038 214 322 214C312.816 197.961 289.129 186.59 285.569 167C283.53 155.777 298.356 142.01 308.999 148.09C318.486 153.508 324.882 166.942 332.17 175C342.019 185.889 355.431 193.227 365 204L345 210L345 211C350.137 214.466 355.799 219.333 362 220.606C379.376 224.171 372.622 209.129 366 202L377 198C370.975 185.636 345.881 176.497 347.445 160C347.974 154.42 353.038 150.099 355 145L356 145C357.119 169.431 391.624 187.683 412 193.86C418.355 195.787 434.157 199.342 439.396 193.486C442.877 189.595 439.3 183.467 435.815 180.995C428.802 176.02 413.549 174.978 405 173L409 162C400.313 161.602 390.037 155.151 392.423 145C393.458 140.595 397.01 137 399 133C400.661 136.287 401.593 140.09 404.228 142.786C416.97 155.827 433.768 133.736 444 127.003C448.886 123.788 464.253 119.312 464.797 112.956C465.995 98.9641 450.455 103.756 443.514 101.378C440.607 100.382 438.421 96.2778 436.6 94C422.975 76.9567 411.076 55.4521 392 43.6636C386.734 40.409 381.484 42.2374 376 40.4668C369.538 38.3804 361.746 33.6417 356.015 29.9537C346.295 23.6981 344.581 8.53833 332 6L332 0L327 0L327 6L319 9L337 49L330 46C331.279 51.5931 333.446 57.265 333.907 63C334.954 76.0298 327.339 101.337 348.998 99.9452C351.561 99.7806 353.662 98.9906 356 98C348.124 106.822 336.458 108.616 330.738 96C327.635 89.154 331.689 79.5312 330.711 72C328.648 56.1303 322.499 45.31 314.26 32C310.928 26.6174 311.231 20.2085 316 16C303.085 9.78107 286.84 10.6942 273 8.69983C261.234 7.00427 249.931 2.71698 238 1.28552C232.107 0.57843 215.684 -3.12683 214.503 6.01849C213.671 12.4637 220.388 17.6571 226 18.6705C237.611 20.767 249.489 20.4733 261 23.7816C275.714 28.0107 294.526 42.9863 309 34z"/>
<path style="fill:#9e9587; stroke:none;" d="M228 0L228 1L244 0L228 0z"/>
<path style="fill:#c6e3ff; stroke:none;" d="M240.667 0.333313L241.333 0.666687L240.667 0.333313z"/>
<path style="fill:#b5c3d0; stroke:none;" d="M244 0L244 2L248 2L248 0L244 0z"/>
<path style="fill:#948268; stroke:none;" d="M248 0L246 2L246 3C248.251 2.52673 249.118 2.13977 248 0z"/>
<path style="fill:#a9aaa9; stroke:none;" d="M249 0L249 3L260 5L260 0L259 0L259 4L257 4L257 0L249 0z"/>
<path style="fill:#bed2eb; stroke:none;" d="M257 0L257 4L259 4L259 0L257 0z"/>
<path style="fill:#bccee4; stroke:none;" d="M260 0C260.3 3.86432 261.089 5.34827 265 6L265 0L260 0z"/>
<path style="fill:#afb6bd; stroke:none;" d="M265 0L264 7L269 7L269 0L265 0z"/>
<path style="fill:#c3dcf9; stroke:none;" d="M269 0L269 7L270 7L269 0z"/>
<path style="fill:#8b7d77; stroke:none;" d="M270 0L267 7L267 8L272 8L272 0L270 0z"/>
<path style="fill:#9fa0a7; stroke:none;" d="M272 0L272 8L275 8L275 0L272 0z"/>
<path style="fill:#c2daf5; stroke:none;" d="M275 0L275 8L277 8L277 0L275 0z"/>
<path style="fill:#796153; stroke:none;" d="M277 0L277 8L271 8L271 9L280 9L280 0L277 0z"/>
<path style="fill:#9e9da4; stroke:none;" d="M280 0L280 9L283 9L283 0L280 0z"/>
<path style="fill:#b8c8dd; stroke:none;" d="M283 0L283 9L285 9L285 0L283 0z"/>
<path style="fill:#7a6254; stroke:none;" d="M285 0L285 10L286 10L285 0z"/>
<path style="fill:#8b7d79; stroke:none;" d="M286 0L288 10L286 0z"/>
<path style="fill:#9c999e; stroke:none;" d="M287 0L287 9L288 9L287 0z"/>
<path style="fill:#bbcde4; stroke:none;" d="M288 0L288 10L291 10L291 0L288 0z"/>
<path style="fill:#867670; stroke:none;" d="M291 0L291 11L299 12L299 11L297 0L296 0L296 10L292 10L291 0z"/>
<path style="fill:#979296; stroke:none;" d="M292 0L292 10L293 10L292 0z"/>
<path style="fill:#abb3c2; stroke:none;" d="M293 0L293 10L294 10L293 0z"/>
<path style="fill:#c1d8f2; stroke:none;" d="M294 0L294 10L295 10L294 0z"/>
<path style="fill:#a4a8b2; stroke:none;" d="M295 0L295 10L296 10L295 0z"/>
<path style="fill:#a2a4ad; stroke:none;" d="M297 0L297 11L298 11L297 0z"/>
<path style="fill:#c0d6f1; stroke:none;" d="M298 0L298 11L300 11L300 0L298 0z"/>
<path style="fill:#a1a2a9; stroke:none;" d="M300 0L299 12C303.726 10.9872 302 3.99487 302 0L300 0z"/>
<path style="fill:#bacde4; stroke:none;" d="M302 0L302 12L304 12L304 0L302 0z"/>
<path style="fill:#928a8a; stroke:none;" d="M304 0L303 13C306.156 10.2421 305.53 3.64716 304 0z"/>
<path style="fill:#b3c2d5; stroke:none;" d="M305 0L305 13L308 13L308 0L305 0z"/>
<path style="fill:#9c9ba2; stroke:none;" d="M308 0L307 14L315 15L315 11L314 11L312 14L312 0L311 0L311 13L309 13L308 0z"/>
<path style="fill:#b5c4d8; stroke:none;" d="M309 0L309 13L311 13L311 0L309 0z"/>
<path style="fill:#bed3ec; stroke:none;" d="M312 0L312 14L314 11L315 11L315 15L316 15L320 0L312 0z"/>
<path style="fill:#a9abab; stroke:none;" d="M320 0L321 8L327 6L327 0L320 0z"/>
<path style="fill:#aaacab; stroke:none;" d="M332 0L332 6L339 9L339 0L332 0z"/>
<path style="fill:#bed3ec; stroke:none;" d="M339 0C339.001 11.6481 346.264 16.9892 351 27L354 27C359.188 16.9717 363.999 12.0128 364 0L339 0z"/>
<path style="fill:#b4c1d5; stroke:none;" d="M364 0C363.992 12.2523 358.845 18.4706 352 28L372 38L372 0L364 0z"/>
<path style="fill:#989396; stroke:none;" d="M372 0L371 39L373 29L372 0z"/>
<path style="fill:#a8aebb; stroke:none;" d="M373 0L373 40L375 40L375 0L373 0z"/>
<path style="fill:#b8cae0; stroke:none;" d="M375 0L375 30C375 34.4969 374.049 39.1505 378 42L378 0L375 0z"/>
<path style="fill:#a39d95; stroke:none;" d="M378 0L378 42L379 42C379 30.0427 382.611 10.9878 378 0z"/>
<path style="fill:#bacce1; stroke:none;" d="M379 0L379 41L381 41L381 0L379 0z"/>
<path style="fill:#a4a29c; stroke:none;" d="M381 0L381 41L385 41L385 0L381 0z"/>
<path style="fill:#b7c6d8; stroke:none;" d="M385 0L385 41L389 41L389 0L385 0z"/>
<path style="fill:#aeb4b9; stroke:none;" d="M389 0C389 10.1812 393.176 32.8485 387 41L387 42C391.416 41.0537 390 35.7699 390 32C390 23.6577 393.085 7.08905 389 0z"/>
<path style="fill:#b8c8da; stroke:none;" d="M390 0C390 19.9439 383.724 49.8639 409 57L409 0L390 0z"/>
<path style="fill:#bed3ec; stroke:none;" d="M409 0L409 41C409 46.1057 407.299 54.2918 409.198 59C412.152 66.3267 420.539 73.2147 424.95 80C427.647 84.1497 440.073 104.068 445.697 101.395C450.802 98.9684 447.817 80.9006 448.039 76C448.288 70.5316 450.511 65.4396 450.91 60C452.36 40.2183 451 19.8384 451 0L409 0z"/>
<path style="fill:#8c724f; stroke:none;" d="M451 0L450 101L453 101L453 0L451 0z"/>
<path style="fill:#9b8f7d; stroke:none;" d="M453 0L453 101L454 101L454 31L453 0z"/>
<path style="fill:#acb1b5; stroke:none;" d="M454 0L454 101L455 101L455 31L454 0z"/>
<path style="fill:#bdd1e9; stroke:none;" d="M455 0L455 101L456 101L456 31L455 0z"/>
<path style="fill:#aeb4b9; stroke:none;" d="M456 0L456 78C456 84.5319 452.925 100.156 460 103L460 0L456 0z"/>
<path style="fill:#9b907f; stroke:none;" d="M460 0L460 78C460 84.2718 457.073 101.009 462 105L462 0L460 0z"/>
<path style="fill:#a7a7a4; stroke:none;" d="M462 0L462 106L463 106L463 32L462 0z"/>
<path style="fill:#b8c7d9; stroke:none;" d="M463 0L463 80C463 86.2603 459.983 103.776 464.603 108.397C467.337 111.131 473.497 110 477 110L512 110L512 0L463 0z"/>
<path style="fill:#ffffff; stroke:none;" d="M512 0L512 592L1414 592L1414 0L512 0z"/>
<path style="fill:#978871; stroke:none;" d="M251.667 3.33331L252.333 3.66669L251.667 3.33331z"/>
<path style="fill:#9e7f49; stroke:none;" d="M226 4L226 5L235 5L226 4z"/>
<path style="fill:#623f11; stroke:none;" d="M213 5C211.016 7.83636 208.187 11.0543 206.875 14.2593C204.245 20.6844 207.775 29.1443 214.015 31.9105C218.021 33.6865 222.753 32.7772 227 33.439C237.859 35.1315 248.533 37.3889 259 40.7446C269.398 44.0781 282.994 53.6394 294 51.6705C302.613 50.1298 307.301 41.8907 309 34C291.996 41.9821 269.8 25.1055 252 21.5139C243.235 19.7453 232.233 21.0806 224 17.8519C217.769 15.4081 216.24 10.1157 213 5z"/>
<path style="fill:#c2ac77; stroke:none;" d="M225 5C227.316 12.6285 249.473 12.5212 257 14.1188C259.866 14.7271 263.764 16.7023 266.663 15.3858C272.962 12.5255 254.954 8.29852 253 8.00385C249.316 7.44806 245.674 6.69995 242 6.08105C236.292 5.11951 230.774 5 225 5z"/>
<path style="fill:#633719; stroke:none;" d="M318 10C314.989 15.9414 311.338 19.8976 312.109 27C312.811 33.4695 318.588 38.5389 321.712 44C326.439 52.2623 328.422 60.7322 330.195 70C331.842 78.6073 327.051 89.2633 330.725 96.9992C336.134 108.391 349.654 108.014 356 98C346.919 100.833 336.546 99.8715 333.475 88.8302C332.191 84.2103 333.976 78.7441 333.999 74C334.047 64.0938 333.012 55.4802 330 46L337 49L320 10L318 10z"/>
<path style="fill:#c2ac77; stroke:none;" d="M335.608 15.1759C332.031 17.5285 340.816 30.1231 344.357 27.8241C347.809 25.5823 339.057 12.9072 335.608 15.1759z"/>
<path style="fill:#633719; stroke:none;" d="M160 15C157.16 22.0023 151.614 21 145 21L145 22L159 27L159 29L153 31C156.656 39.1182 164.073 44.6109 171 49.8696C185.847 61.14 202.491 71.1451 220 77.6805C229.997 81.4122 243.882 87.8115 250 75C241.343 79.3516 234.644 76.2163 226 73.0471C209.011 66.8184 195.123 55.6272 179 48L179 46L189 43C182.178 31.7562 166.161 29.008 162 15L160 15z"/>
<path style="fill:#c3ae79; stroke:none;" d="M177.662 18.1759C173.888 20.5648 187.25 34.4695 191.338 31.8287C194.821 29.579 181.175 15.9523 177.662 18.1759z"/>
<path style="fill:#9fa0a9; stroke:none;" d="M186.667 17.3333L187.333 17.6667L186.667 17.3333z"/>
<path style="fill:#c2ac77; stroke:none;" d="M300 26C297.328 24.5942 294.692 23.1238 292 21.7562C290.342 20.9139 288.687 20.0465 287 19.2631C270.104 11.4171 295.673 38.9848 300 26z"/>
<path style="fill:#928b80; stroke:none;" d="M158.333 18.6667L158.667 19.3333L158.333 18.6667z"/>
<path style="fill:#a5aab6; stroke:none;" d="M137 19C137 24.4061 134.755 36.2903 139 40L137 19z"/>
<path style="fill:#8c7d69; stroke:none;" d="M143 20L143 21L158 21L143 20z"/>
<path style="fill:#8a7a63; stroke:none;" d="M154 26L154 27L158 27L154 26z"/>
<path style="fill:#8f5918; stroke:none;" d="M206 37L206 38C210.993 40.447 215.939 42.9203 221 45.2307C223.964 46.5841 226.96 47.9112 230 49.0887C233.323 50.3762 241.041 51.3888 243.079 54.5008C246.195 59.2609 233.086 55.2163 232 54.8071C221.458 50.8354 211.467 43.402 201 40.017C197.556 38.9031 194.158 40.7841 191 42C200.892 53.9686 222.478 61.6732 237 66.1898C242.049 67.7601 252.534 70.3208 255.381 63.6204C257.357 58.97 252.578 53.6956 248.96 51.5331C244.174 48.6732 238.157 47.6534 233 45.5479C223.852 41.8128 216.274 35.1221 206 37z"/>
<path style="fill:#ccb374; stroke:none;" d="M201 38C205.847 47.3516 222.646 51.7134 232 55.189C234.092 55.9663 243.26 59.9423 244.079 55.8225C244.73 52.5446 236.109 50.9033 234 50.1659C224.884 46.9782 210.404 35.728 201 38M354 78C361.987 75.3491 357.838 54.4364 355.961 48C355.231 45.4977 354.167 40.4531 351.019 39.9213C347.014 39.2444 349.706 45.5052 350.205 47C353.643 57.2888 354 67.2804 354 78z"/>
<path style="fill:#623f11; stroke:none;" d="M373 44C370.402 48.1718 366.504 52.0928 365.394 57C362.469 69.9403 381.752 80.3064 388.916 89C393.837 94.9715 398.125 105.878 405.043 109.543C416.841 115.793 428.278 104.035 430 93C425.629 95.2331 420.978 98.004 416.001 95.9066C408.729 92.8419 405.272 84.0022 400.844 78C391.635 65.5172 379.298 57.9947 373 44z"/>
<path style="fill:#c5af7a; stroke:none;" d="M386 46C388.461 51.2767 392.798 56.3655 399 55C396.539 49.7232 392.202 44.6344 386 46z"/>
<path style="fill:#8f5918; stroke:none;" d="M338 49C338.238 60.5095 333.665 100.424 356.981 89.9105C365.973 85.8555 365.594 64.7475 358 60C358.225 61.7808 359.66 79.6451 354.545 76.0787C350.759 73.4395 353 59.2323 353 55L338 49z"/>
<path style="fill:#a0814b; stroke:none;" d="M142 50L142 51L152 51L142 50z"/>
<path style="fill:#c2ac77; stroke:none;" d="M141 51L141 55C146.701 55.0038 157.761 58.7462 160 52L141 51M128 56C124.825 46.4322 100.72 57.0269 94 59.1157C91.0407 60.0355 85.8877 60.7791 84.0864 63.6296C80.4099 69.4478 91.6053 65.3851 93 64.875C94.9658 64.1559 96.9845 63.5737 99 63.0116C102.99 61.899 106.98 60.4747 111 59.5247C116.628 58.1948 122.377 57.4553 128 56z"/>
<path style="fill:#8f5918; stroke:none;" d="M308 52.635C293.223 56.6334 272.77 68.9758 263.318 81.0394C256.498 89.7429 267.794 100.576 277 98.463C288.447 95.836 298.659 81.7852 309 75.8727C313.453 73.3264 321.125 71.5824 324.393 67.5818C331.439 58.9558 314.935 50.7584 308 52.635z"/>
<path style="fill:#9f7f49; stroke:none;" d="M142 55L142 56L151 56L142 55z"/>
<path style="fill:#ccb374; stroke:none;" d="M311.981 55.696C308.287 56.4602 296.233 66.6273 304.059 65.1528C308.157 64.3807 321.594 53.707 311.981 55.696z"/>
<path style="fill:#623f11; stroke:none;" d="M164 60C155.37 64.9058 147.429 63.2573 138 64.1697C129.029 65.0378 119.561 67.4033 111 70.1644C103.896 72.4556 93.5191 78.8713 86 77.6813C79.5674 76.6633 76.1624 70.4481 74 65L72 65C68.639 74.2218 69.9992 83.1144 80 87L66 108C76.4582 101.458 84.2293 91.869 96 87.4251C114.349 80.4977 133.979 82.8822 151.999 77.196C157.671 75.4062 165.684 66.1624 164 60z"/>
<path style="fill:#b69354; stroke:none;" d="M353 60L353 77L354 77L353 60z"/>
<path style="fill:#a27839; stroke:none;" d="M358 63L358 72L359 72L358 63z"/>
<path style="fill:#c2ac77; stroke:none;" d="M419 88C427.666 85.112 414.562 68.5229 409.929 65.662C403.392 61.6253 407.88 71.0208 409.35 73C410.819 74.9763 412.278 76.951 413.645 79C415.588 81.9128 417.356 84.9119 419 88z"/>
<path style="fill:#978770; stroke:none;" d="M449 67L449 101L450 101L449 67z"/>
<path style="fill:#ccb374; stroke:none;" d="M287.941 70.0864C282.903 71.6123 276.762 77.7126 273.153 81.4275C271.867 82.7513 269.008 87.4922 273.153 87.1181C278.022 86.6786 286.638 78.3606 289.663 74.7153C291.37 72.6584 291.706 68.9459 287.941 70.0864z"/>
<path style="fill:#a8aeb3; stroke:none;" d="M0 71L0 72L70 72L48 71L0 71z"/>
<path style="fill:#a5a49f; stroke:none;" d="M448 71L448 101L449 101L448 71z"/>
<path style="fill:#968e82; stroke:none;" d="M0 72L0 75L70 75L70 72L0 72z"/>
<path style="fill:#a9afb4; stroke:none;" d="M0 75L0 76L70 76L48 75L0 75z"/>
<path style="fill:#bed3ec; stroke:none;" d="M0 76L0 151C8.07162 151 25.619 154.334 32.4823 149.972C38.4085 146.206 42.5652 135.584 46.8881 130C51.0184 124.665 57.2872 120.247 57 113C66.0706 112.31 76.898 95.0207 80 87L75 85L75 89L73 89C72.9638 84.9536 72.9573 78.6528 68.6096 76.6034C63.3814 74.1389 53.7181 76 48 76L0 76z"/>
<path style="fill:#664027; stroke:none;" d="M88 90L88 91C98.9334 91.2329 112.005 101.464 103.427 112.961C92.425 127.707 75.2748 137.532 64.1551 153C61.3013 156.97 54.8323 164.013 54.7037 169C54.5808 173.766 58.6842 179.852 60.7531 184C62.798 188.1 64.492 191.993 68 195C70.8794 179.49 70.64 160.724 80.9012 147.845C88.1262 138.776 102.382 137.873 106.343 151C108.631 158.581 103.231 168.499 102.015 176C99.0495 194.278 97.5953 212.661 101 231L77 208L76 208C76 216.631 75.1001 227.926 81.2778 234.895C86.9421 241.285 99.41 242.056 101 232C109.354 238.422 118.961 245.529 129 249.034C140.239 252.957 152.594 253.463 164 257.541C170.079 259.714 177.096 268.173 182.935 268.508C191.567 269.003 193.695 251.481 205 253.576C221.19 256.577 214.301 276.68 231 278C230.88 263.688 225.231 248.011 219.576 235C217.065 229.224 210.829 221.501 211.445 215C211.971 209.445 217.206 204.586 220 200C213.27 198.405 203.905 191.585 197.09 192.503C190.178 193.434 187.564 202.959 179 200.282C170.303 197.564 163.254 185.254 157 179C148.66 170.66 139.834 162.913 130 156.355C123.569 152.066 115.359 148.879 110.228 142.957C98.1101 128.969 119.309 113.01 133 118L133 114C149.078 114.011 162.835 122.734 178 123.772C183.684 124.16 188.627 120.938 191 116C178.611 121.046 168.418 112.719 156 110.465C149.153 109.222 141.219 110.148 135.04 106.467C121.334 98.3007 128.936 85.5028 140 80C125.681 73.9914 101.614 85.3944 88 90z"/>
<path style="fill:#8f5918; stroke:none;" d="M214.019 80.7037C202.247 84.8057 216.562 102.64 220.654 108C232.312 123.27 263.091 149.748 284.852 137.427C290.777 134.073 285.919 126.486 281.957 123.703C274.788 118.668 264.025 120.264 256 115.663C242.544 107.948 238.861 94.4842 228.61 84.3935C225.106 80.9443 218.757 79.053 214.019 80.7037M136.059 81.7423C128.386 84.9543 134.089 94.4855 139.04 97.2315C143.894 99.9236 150.611 99.5193 156 100.285C166.382 101.762 183.039 112.968 192.941 107.543C201.218 103.009 193.654 94.1002 187.996 91.4398C175.314 85.4763 150.059 75.8816 136.059 81.7423z"/>
<path style="fill:#a7acaf; stroke:none;" d="M73 83L73 89L75 89L73 83z"/>
<path style="fill:#ccb374; stroke:none;" d="M140.662 86.0123C138.844 87.4986 140.566 89.1811 142.153 89.6975C146.062 90.9699 161.032 95.6688 164.338 92.973C166.636 91.0995 163.603 88.968 161.941 88.3441C158.104 86.9044 144.02 83.2679 140.662 86.0123M221 85C221.249 87.8362 221.77 90.3539 222.877 93C223.589 94.7028 224.409 96.3858 225.313 97.9954C226.078 99.3581 230.86 106.336 232.187 101.663C233.645 96.5242 225.781 85.7902 221 85z"/>
<path style="fill:#ac8444; stroke:none;" d="M143 90L143 91L148 91L143 90z"/>
<path style="fill:#7c541d; stroke:none;" d="M41 155C44.2533 143.105 50.6489 135.124 58.5756 126C60.326 123.985 64.2817 117.912 67.534 118.631C70.6156 119.313 65.0831 125.213 64.419 126C59.7662 131.517 54.5899 138.901 48 142L51 160C60.7771 158.938 64.3152 150.315 69.3472 143C75.1505 134.564 82.2846 126.299 90.0008 119.576C94.3532 115.783 103.42 110.51 105.381 104.961C108.079 97.3247 98.294 91.5135 92.0039 91.098C85.5731 90.6732 80.6897 95.6547 76 99.4599C63.9129 109.267 53.1275 120.444 43.8843 133C39.4155 139.07 32.2074 149.168 41 155z"/>
<path style="fill:#633719; stroke:none;" d="M202 92C196.038 117.041 228.861 144.394 250 151.113C260.763 154.534 274.47 157.431 282 147C255.809 152.987 232.288 137.132 216.665 117C211.2 109.957 204.929 101.073 204 92L202 92z"/>
<path style="fill:#8f5918; stroke:none;" d="M377 93.7423C370.964 96.0457 366.56 102.538 361 105.931C350.427 112.381 334.92 113.813 323 111C318.273 109.884 309.125 108.311 306.071 113.533C301.066 122.091 316.367 128.296 322 129.245C341.038 132.455 360.556 130.61 378 121.88C383.836 118.958 393.285 113.648 395.353 107C398.293 97.5507 384.486 90.8855 377 93.7423z"/>
<path style="fill:#000000; stroke:none;" d="M528 93L528 159L529 159C552.046 125.225 599.756 97.2823 641 94L607 93L528 93z"/>
<path style="fill:#ca6494; stroke:none;" d="M573 188C568.902 185.605 564.481 183.711 561.394 179.957C550.458 166.657 563.319 150.501 573.001 141.015C591.598 122.793 622.429 108.489 649 113.468C692.189 121.56 675.272 175.667 649 192.852C643.218 196.634 634.65 194.765 628 196C631.707 186.965 635.644 178.008 639.424 169C642.799 160.957 652.522 145.858 651.472 137.109C650.354 127.783 633.677 135.494 630.518 139.105C608.432 164.347 592.474 197.974 573.997 226L559.333 248C557.629 250.564 554.107 254.41 554.967 257.775C555.962 261.67 561.838 261.903 565 261.985C574.587 262.236 585.275 260.869 594 256.673C606.615 250.606 606.572 234.957 614.966 225.318C619.943 219.603 634.071 221.573 638.907 226.178C641.27 228.429 643.138 231.134 644.676 234C653.657 250.736 641.46 267.811 626 275.11C607.979 283.617 583.392 278.824 566 270.766C559.671 267.834 553.509 264.653 548 260.331C545.157 258.1 541.927 253.873 538.109 253.466C533.551 252.981 533.178 259.918 533.039 263C532.581 273.163 535.359 280.795 544 286.64C576.226 308.441 636.137 314.109 666.961 287.245C683.312 272.995 687.008 252.559 687 232C686.996 221.816 684.074 208.8 674 204C678.436 198.2 684.876 194.336 689.83 188.985C706.342 171.152 723.027 143.56 717.481 118C712.984 97.2708 687.783 93 670 93C626.474 93 586.513 105.473 552 133.004C533.872 147.465 510.532 175.714 519.966 201C529.716 227.134 565.271 202.978 573 188z"/>
<path style="fill:#000000; stroke:none;" d="M681 93L681 94C686.086 94.2217 691.202 95.3674 696 97.0903C732.833 110.318 715.981 155.665 698.193 178C691.266 186.697 678.872 194.378 674 204C685.446 212.238 687.005 224.983 687 238C686.987 271.425 661.873 302.276 627 303L627 304L720 304L720 295C703.535 290.246 700.353 272.788 703.665 258C706.51 245.296 717.263 234.978 719.721 223C722.382 210.04 720 194.237 720 181L720 93L681 93M736 93L736 206L737 206C747.628 193.277 765.59 195.346 773.583 210C777.614 217.391 777 225.89 777 234C785.863 232.855 805.182 227.24 808.824 217.826C811.365 211.259 801.819 209.027 811.002 203.133C836.957 186.475 838.811 227.857 836 243L837 243C847.285 227.755 857.252 211.07 873 200.761C879.155 196.731 890.162 193.132 893.991 202.043C900.678 217.607 885.011 239.768 885 256C901.907 251.586 906.661 224.528 923 222C922.576 229.84 916.944 236.355 913.15 243C904.141 258.781 895.729 275.753 882.714 288.714C875.927 295.473 863.507 303.107 855.279 293.891C845.169 282.568 857.42 258.522 862 247C863.012 244.455 868.861 232.862 862.851 232.712C857.36 232.575 851.397 240.33 848.185 244C836.006 257.916 834.112 280.865 819.985 292.772C816.29 295.885 796.564 299.684 794.929 292.852C793.782 288.057 798.364 279.678 799.709 275C801.524 268.686 803.28 262.374 804.873 256C807.191 246.726 808.607 237.249 811 228C803.954 232.817 797.768 237.99 790 241.742C785.864 243.739 779.102 244.585 775.843 247.843C772.958 250.729 772.345 256.349 770.688 260C767.762 266.444 763.702 272.792 758.907 278C749.985 287.69 736.002 289.921 736 304L1012 304L1012 303C995.303 301.636 980.402 290.614 964 288.973C958.946 288.467 953.715 292.473 949 293.971C935.406 298.292 901.31 303.026 899.2 282C897.288 262.955 920.643 252.999 936 252.209C942.234 251.888 950.265 255.392 955.561 250.682C965.249 242.067 971.548 227.398 977.247 216C988.729 193.035 1003.29 167.369 1011 143C992.813 140.539 974.577 127.278 973 108C989.738 116.908 1004.35 122.524 1023 126C1032.75 110.41 1049.92 96.2308 1069 96.0038C1083.05 95.8366 1104.11 101.908 1096 121C1090.43 134.127 1072.82 140.337 1060 142.997C1055.17 143.999 1045.28 143.511 1041.97 147.318C1031.18 159.705 1026.36 182.796 1020.58 198C1011.89 220.84 999.311 240.198 989 262C1014.84 269.261 1048.06 267.199 1058 238C1075.94 259.839 1060.72 298.058 1033 303L1033 304L1413 304L1413 224L1412 224C1401.02 249.493 1378.37 279.279 1354 292.957C1350.91 294.694 1347.52 296.087 1344 296.674C1314.74 301.561 1317.25 265.163 1321 247L1320 247C1312.37 263.13 1298.76 281.776 1284 291.945C1274.55 298.456 1261.44 297.302 1256.19 285.999C1248.62 269.689 1259.32 249.892 1263 234L1262 234C1251.48 253.775 1238.37 275.228 1221 289.674C1212.07 297.1 1198.25 299.503 1191.22 287.985C1180.5 270.404 1194.95 245.498 1199 228L1198 228C1188.08 249.221 1173.31 273.999 1156 289.907C1140.85 303.829 1128.14 291.127 1128 274L1127 274C1119.99 286.186 1093.48 309.025 1085.11 285C1079.7 269.48 1087.86 248.482 1095.31 235C1103.47 220.24 1118.22 204.468 1135 199.927C1147.04 196.67 1165.74 199.111 1159 215C1172.54 215.441 1156.79 237.416 1155.44 246C1155 248.774 1153.85 254.982 1157.32 256.342C1161.68 258.049 1167.14 252.072 1169.99 249.572C1178.52 242.082 1187.37 223.795 1199 222L1199 227L1200 227L1220 179L1205 181C1210.36 168.585 1218.45 173.655 1226.36 166.411C1234.45 159.005 1234.47 144.966 1242.21 137.144C1247.49 131.809 1258.84 131.307 1266 131L1254 162C1265.93 161.057 1287.46 159.789 1297.79 153.686C1302.91 150.66 1303.61 142.481 1307.39 138.058C1312.66 131.883 1324.35 131.328 1332 131L1320 162L1372 154C1367.9 160.447 1361.6 168.929 1354 171.348C1342.36 175.053 1323.65 170.417 1313.39 177.027C1309.62 179.453 1307.7 186.07 1306 190C1301.53 200.338 1296.76 210.521 1292.6 221C1289.17 229.651 1284.77 239.647 1284.09 249C1283.8 252.975 1283.36 259.209 1289.02 258.717C1296.85 258.035 1304.67 248.467 1309.42 243C1320.41 230.36 1332.13 217.715 1344 206.015C1352.36 197.774 1365.79 190.449 1376.96 198.109C1386.57 204.7 1386.42 217.483 1381.73 227C1374.56 241.53 1359.23 251.663 1343 252L1343 253C1362.12 263.026 1382.49 247.428 1395.71 234.424C1400.51 229.707 1405.91 220.305 1413 220L1413 93L736 93z"/>
<path style="fill:#ccb374; stroke:none;" d="M177 94C179.017 106.367 199.704 100.613 183.005 94.9545C180.991 94.2721 179.103 94.1091 177 94z"/>
<path style="fill:#c2ac77; stroke:none;" d="M89.9406 97.0054C86.2732 97.9951 81.6176 102.143 79.3372 105.085C78.1795 106.578 76.7119 110.483 80.1528 110.093C83.9041 109.669 90.3748 103.932 92.338 100.849C93.7598 98.6158 92.8234 96.2273 89.9406 97.0054z"/>
<path style="fill:#ca6494; stroke:none;" d="M1023 126L973 108C973.849 127.476 992.455 141.483 1011 143C1000.14 166.259 989.733 190.026 978.247 213C972.018 225.459 965.528 239.863 955.561 249.852C950.072 255.353 942.732 251.808 936 252.104C921.002 252.764 904.304 259.108 899.789 275C896.858 285.315 902.496 294.543 913 296.532C923.645 298.549 936.578 297.593 947 294.844C952.074 293.506 958.249 288.934 963.424 289.15C988.401 290.197 1010.42 311.815 1037 302.452C1058.69 294.81 1079.86 256.742 1058 238C1044.19 267.131 1017.28 267.834 989 262C1005.17 238.005 1014.93 212.68 1025.6 186C1030.24 174.389 1033.85 156.507 1042.64 147.318C1046.04 143.753 1054.33 144.34 1059 143.4C1072.6 140.664 1093.22 134.481 1096.95 119C1101.33 100.841 1085.24 95.9945 1071 96C1052.06 96.0073 1030.65 107.921 1023 126z"/>
<path style="fill:#ccb374; stroke:none;" d="M389 98C382.401 98.7342 377.588 103.717 372 106.988C368.136 109.25 364.149 111.127 360 112.799C357.445 113.83 344.456 116.053 345.752 119.776C347.169 123.849 356.488 119.504 359 118.667C368.236 115.587 387.246 108.87 389 98z"/>
<path style="fill:#c2ac77; stroke:none;" d="M448.981 104.697C443.612 105.826 436.304 110.524 432.153 114.042C430.571 115.383 428.239 119.271 432.153 119.264C436.562 119.256 449.384 111.529 452.338 108.205C454.672 105.579 451.265 104.216 448.981 104.697z"/>
<path style="fill:#55321c; stroke:none;" d="M105 106C92.9861 116.396 81.0564 126.129 71.4784 139C65.5844 146.92 61.6583 157.938 51 160L47 140L41 155L37 146L33 153L0 153L0 158L33 158C33.6429 161.62 35.89 165.283 35.5162 169C35.2059 172.085 32.5784 175.477 33.6968 178.621C35.7688 184.447 43.8323 189.49 46.6628 196C55.0678 215.331 57 239.135 57 260C57 265.831 58.8694 275.677 55.9722 280.895C49.8501 291.921 35.4482 284.266 32.6489 275C29.9005 265.903 33.0451 253.508 32.9992 244C32.9388 231.463 29.6599 219.327 28 207L27 207C26.7579 236.249 18.6334 268.621 36.8596 294C41.4676 300.416 47.1705 308.498 55 311.146C68.2782 315.636 79.9287 300.644 93 304.954C108.937 310.209 120.6 325.894 138 326.907C149.552 327.579 157.299 318.614 168 316.39C175.117 314.912 181.332 319.416 188 321C194.675 307.718 200.638 292.18 198.816 277C198.035 270.496 194.956 264.471 194 258C188.454 262.486 186.924 268.751 179 268C179.934 273.727 175.942 277.778 170 277.79C160.545 277.809 149.498 270.695 140 268.808C134.432 267.701 128.026 269.021 123.004 265.991C111.245 258.896 115.735 249.111 128 249L128 248L101 232C95.7584 250.225 78.5134 232.544 76.6157 222C72.0332 196.538 78.6381 170.966 82 146L81 146C72.9324 161.734 70.2185 177.446 68 195C63.4328 189.442 54.7169 176.546 55.223 169C55.4758 165.231 59.4506 161.092 61.4352 158C67.9887 147.79 76.2473 138.409 85 130.039C90.6087 124.676 108.503 115.279 105 106z"/>
<path style="fill:#aeb5bc; stroke:none;" d="M465 110L465 111L512 111C499.823 105.891 478.265 110 465 110z"/>
<path style="fill:#ccb374; stroke:none;" d="M240 111C238.61 117.26 244.148 120.244 249 123.174C259.69 129.63 270.675 132 283 132C282.015 126.097 276.973 127.075 272 126.245C259.295 124.127 251.291 115.773 240 111z"/>
<path style="fill:#917d60; stroke:none;" d="M465 113L512 112L477 111L465 113z"/>
<path style="fill:#9e9689; stroke:none;" d="M466 112L466 113L512 113C500.061 107.99 479.003 112 466 112z"/>
<path style="fill:#a8aaa8; stroke:none;" d="M57 116L61 113L57 116z"/>
<path style="fill:#a8a9a8; stroke:none;" d="M465 113L465 117L466 117L465 113z"/>
<path style="fill:#bccfe6; stroke:none;" d="M466 113L466 117L512 117L512 113L466 113z"/>
<path style="fill:#000000; stroke:none;" d="M573 188C560.881 204.08 548.185 212.593 528 211L528 304L595 304L595 303C577.046 302.629 551.897 294.97 539.105 281.907C534.754 277.463 527.769 258.217 536.43 254.176C539.228 252.87 542.135 256.265 544 257.846C549.812 262.771 556.114 266.598 563 269.833C580.853 278.218 606.032 283.876 625 275.982C640.765 269.422 653.66 252.228 645.676 235C641.178 225.294 625.064 214.833 614.966 224.603C605.636 233.631 606.637 249.515 594 256.175C585.845 260.473 575.147 262.21 566 261.985C562.785 261.906 556.766 261.613 555.598 257.775C554.679 254.756 557.806 251.303 559.333 249L573.997 227C592.644 198.716 608.8 166.017 630.518 140.043C633.562 136.402 651.132 127.209 651.073 138.044C651.027 146.42 643.577 158.334 640.281 166C636.084 175.762 630.918 185.792 628 196C634.735 195.149 644.23 196.626 650 192.852C675.757 176.004 692.255 119.676 649 113.301C621.163 109.198 590.38 122.382 571.015 142.004C556.381 156.831 549.796 178.337 573 188z"/>
<path style="fill:#623f11; stroke:none;" d="M464 116C451.719 122.547 439.671 128.027 429 137.289C424.204 141.453 419.194 148.029 412 146.59C404.357 145.062 402.865 138.387 399 133C388.117 148.197 392.032 158.571 410 163C418.131 154.51 433.731 137.082 447 138.419C458.368 139.564 467.874 155.003 473 164L474 164L460.5 130L464 116z"/>
<path style="fill:#c2ac77; stroke:none;" d="M65.9414 118.176C60.2609 120.347 53.1509 130.104 49.7284 134.999C48.7508 136.397 46.0888 141.675 50.1381 141.079C55.5885 140.276 65.8009 126.706 68.3526 122.019C69.5462 119.827 69.0142 117.001 65.9414 118.176z"/>
<path style="fill:#ccb374; stroke:none;" d="M334 119C331.636 118.437 329.428 118.122 326.998 118C325.321 117.916 323.675 117.745 322.005 117.595C309.675 116.487 330.138 130.636 334 119z"/>
<path style="fill:#7f6a4c; stroke:none;" d="M465 117L465 118L512 118C499.823 112.891 478.265 117 465 117z"/>
<path style="fill:#958d80; stroke:none;" d="M465 118L465 119L512 119C499.823 113.891 478.265 118 465 118z"/>
<path style="fill:#8f5918; stroke:none;" d="M134 119L133 123L153 135C149.233 141.574 141.215 132.662 136 131C139.086 144.495 149.653 150.102 159 159.039C166.797 166.495 173.223 175.586 181.17 182.772C185.329 186.533 194.206 187.79 198.396 183.196C204.072 176.972 192.203 166.2 188.575 162C174.173 145.328 154.564 127.607 134 119z"/>
<path style="fill:#bed4ed; stroke:none;" d="M464 119L459.708 128L469.421 150L494 207L512 207L512 119L464 119z"/>
<path style="fill:#623f11; stroke:none;" d="M114 120C109.531 125.651 104.828 132.408 107.742 139.999C110.254 146.541 118.413 149.809 124 153.203C134.082 159.327 143.609 166.712 152 175.004C159.201 182.12 168.296 197.046 178.001 200.296C188.49 203.81 198.325 192.25 200 183C194.713 184.877 189.399 187.668 184.015 184.258C174.112 177.985 166.803 165.121 158 157.17C143.556 144.124 123.294 136.976 114 120z"/>
<path style="fill:#ccb374; stroke:none;" d="M131 122C129.36 129.272 150.243 143.272 153 135L131 122z"/>
<path style="fill:#c2ac77; stroke:none;" d="M409 138C410.84 137.221 412.401 136.481 414.024 135.275C429.937 123.457 406.157 125.125 409 138z"/>
<path style="fill:#ca6494; stroke:none;" d="M1205 181L1220 179L1200 227L1199 227L1199 222C1187.21 222.889 1178.29 241.247 1169.99 248.714C1167.31 251.122 1162.2 256.895 1158.15 256.118C1153.61 255.248 1155.21 248 1155.81 245C1157.55 236.225 1173.73 215.175 1159 215C1168.91 198.543 1145.17 196.906 1134 199.927C1115.96 204.808 1101.29 221.907 1093.25 238C1086.66 251.176 1078.31 274.805 1086.42 288.96C1096.84 307.147 1122.26 286.256 1127 274L1128 274C1128.05 290.687 1140.18 304.651 1156 290.815C1168.67 279.729 1177.24 264.261 1185.8 250C1190.01 242.984 1195.52 235.825 1198 228L1199 228C1193.76 244.096 1178.5 276.822 1193.34 291.66C1201.5 299.813 1214.25 296.122 1222 289.674C1237.85 276.493 1254.87 253.488 1262 234L1263 234C1258.04 249.245 1246.96 274.958 1257.85 289.906C1263.86 298.14 1276.18 297.638 1284 292.612C1297.97 283.633 1314.9 262.993 1320 247L1321 247C1315.03 268.23 1317.98 307.09 1350 295.289C1369 288.289 1384.65 268.171 1395.66 252C1400.74 244.53 1405.81 236.946 1410.13 229C1411.16 227.107 1414.3 221.877 1411.39 220.176C1407.45 217.876 1394.97 234.3 1391.99 237.075C1378.12 249.966 1361.95 260.298 1343 253L1343 252C1359.97 251.86 1375.9 241.729 1382.66 226C1386.28 217.596 1386.53 205.067 1378.81 198.789C1368.57 190.454 1353.53 196.227 1345 204.093C1332.58 215.553 1320.57 229.176 1309.42 242C1304.81 247.313 1296.64 257.689 1289.02 258.433C1283.76 258.947 1283.79 252.628 1284.17 249C1285.13 239.96 1289.27 230.399 1292.6 222C1296.89 211.186 1301.78 200.654 1306.42 190C1308.19 185.957 1310.23 179.398 1314.21 177.027C1318.13 174.691 1324.57 175.26 1329 174.715C1346.58 172.55 1363.73 172.804 1372 154C1356.77 150.703 1335.47 160.034 1320 162L1332 131C1324.84 131.148 1312.5 131.557 1307.39 137.144C1303.06 141.876 1302.74 150.452 1296.9 153.686C1286.02 159.705 1266.31 160.436 1254 162L1266 131C1259.2 131.14 1247.45 131.522 1242.21 136.303C1234.04 143.765 1233.92 157.657 1226.36 165.686C1218.88 173.634 1209 167.397 1205 181z"/>
<path style="fill:#8f5918; stroke:none;" d="M201.005 132.654C187.725 136.827 202.092 150.268 207 154.961C220.306 167.684 236.408 178.447 253 186.363C258.971 189.211 266.177 193.858 272.981 190.991C279.643 188.183 278.547 180.849 273.695 176.8C268.237 172.245 260.185 170.112 254 166.573C241.62 159.487 230.177 150.993 220 141.003C215.052 136.146 208.564 130.278 201.005 132.654z"/>
<path style="fill:#7c541d; stroke:none;" d="M470 202L482 188L486 215L512 213L512 211L494 211C493.817 189.147 475.524 164.085 462.079 148.001C458.293 143.471 440.497 130.215 437.477 143.058C435.916 149.696 443.977 156.365 447.575 161C456.818 172.908 465.99 187.337 470 202M101 231C98.6114 212.1 97.915 192.697 102.594 174C104.727 165.478 110.55 152.822 103.606 145.214C98.0985 139.18 86.6623 137.93 82.4298 146.093C75.8594 158.765 76 178.109 76 192C76 196.955 74.965 203.324 76.858 208C80.3159 216.542 92.7678 227.229 101 231z"/>
<path style="fill:#664027; stroke:none;" d="M405 173C413.908 175.899 428.617 175.894 435.815 181.649C446.505 190.196 437.553 207.951 426 210.606C410.42 214.185 390.275 204.766 378 196L366 202C368.769 206.446 373.625 209.389 374.563 215C375.924 223.138 364.975 235.091 357 235.486C342.877 236.186 334.41 216.913 322 214.027C311.453 211.574 297.878 214.252 287 213.985C272.887 213.64 257.675 210.369 244 207C250.033 232.398 264 253.757 264 281L278 284L279 284C279.45 265.283 304.91 262.755 307 282L338 280C327.842 267.403 310.096 258.117 294 256.184C285.63 255.18 273.023 259.727 266.044 254.427C254.25 245.471 263.064 228.121 275 224.329C296.667 217.447 325.16 227.63 343 239.746C349.236 243.981 358.846 249.718 359.746 258C360.569 265.574 353.796 271.26 350 277L368 274C367.832 265.866 362.533 255.713 366.303 248C371.711 236.936 385.2 228.391 394.147 241.043C398.227 246.813 398.706 255.154 399 262L423 250C417.846 246.103 410.724 245.482 406.703 239.907C399.675 230.162 409.37 213.42 421 213.198C431.934 212.99 443.29 221.937 453 226C455.424 222.545 459.603 219.259 460.523 215C461.548 210.26 457.764 205.079 455.833 201C451.479 191.8 445.963 183.071 439.765 175C436.059 170.175 430.043 165.359 429.229 159C428.315 151.857 434.402 146.445 438 141C425.462 144.995 407.395 159.573 405 173z"/>
<path style="fill:#ceb677; stroke:none;" d="M211.662 143.176C209.462 144.568 212.168 147.822 213.153 149C215.411 151.703 225.145 162.683 229.338 159.878C232.353 157.861 215.289 140.881 211.662 143.176z"/>
<path style="fill:#664312; stroke:none;" d="M436 143C427.366 154.161 436.462 161.836 443.575 171C452.423 182.4 461.004 196.021 465 210L471 204C473.165 211.284 478.39 215.588 486 216L486 250C478.672 242.732 464.677 228.353 454 226.797C447.541 225.856 444.615 234.835 439 236.431C428.989 239.275 412.965 226.358 412 217C405.125 222.757 405.595 232.962 413.043 238.301C416.745 240.954 424.326 244.983 429 244.512C434.007 244.007 436.574 238.775 442 240.882C457.723 246.988 467.674 265.987 485 266L484 274C494.561 266.333 489.509 259.063 487.302 249C485.945 242.809 486.496 234.323 487.059 228.015C487.583 222.136 493.317 219.129 494 213L486 215L482 188L470 202C466.117 179.448 446.772 162.033 436 143z"/>
<path style="fill:#ccb475; stroke:none;" d="M161.662 145.176C158.246 147.338 167.979 158.718 171.377 155.914C174.809 153.082 164.996 143.066 161.662 145.176z"/>
<path style="fill:#623f11; stroke:none;" d="M355 145C352.142 150.017 347.122 154.856 347.199 161C347.283 167.673 353.206 174.223 357.3 179C369.314 193.016 386.066 204.032 404 208.336C419.472 212.049 437.817 213.392 441 193C407.854 208.468 367.921 171.661 355 145z"/>
<path style="fill:#8f5918; stroke:none;" d="M365 204C359.876 195.287 347.294 189.204 340 181.996C333.935 176.003 328.108 169.753 322.888 163C319.326 158.392 298.792 133.424 293.708 151.044C292.093 156.642 299.092 163.981 302.13 168C310.679 179.311 320.145 190.247 331 199.41C334.72 202.55 339.196 207.613 344 208.958C350.107 210.668 359.023 205.383 365 204z"/>
<path style="fill:#ccb374; stroke:none;" d="M368.607 147.176C364.382 149.965 378.026 167.555 382.338 164.824C385.472 162.839 371.915 144.992 368.607 147.176z"/>
<path style="fill:#55321c; stroke:none;" d="M431 150C424.861 162.756 436.648 171.396 443.41 181C448.57 188.329 461.499 204.527 460.353 214C459.807 218.517 454.885 221.953 453 226L486 250L486 216C478.688 215.206 473.89 210.566 471 204L465 210C460.892 186.883 440.238 170.358 431 150z"/>
<path style="fill:#a5a8a9; stroke:none;" d="M0 151L0 152L33 152L0 151z"/>
<path style="fill:#623f11; stroke:none;" d="M292 151C272.412 175.786 314.692 208.363 333 222.575C338.801 227.078 345.843 233.128 353 235.196C363.712 238.291 373.294 226.421 375 217C361.137 224.083 352.012 215.619 341 206.8C320.796 190.619 306.267 172.204 292 151z"/>
<path style="fill:#7c6443; stroke:none;" d="M0 152L0 153L33 153L0 152z"/>
<path style="fill:#ccb374; stroke:none;" d="M308 152C308.182 153.77 308.336 155.348 308.995 157.025C315.227 172.884 321.341 154.17 308 152z"/>
<path style="fill:#887a75; stroke:none;" d="M471.333 154.667L471.667 155.333L471.333 154.667z"/>
<path style="fill:#795e3a; stroke:none;" d="M0 158L0 159L33 159L0 158z"/>
<path style="fill:#9d9a94; stroke:none;" d="M0 159L0 160L33 160L0 159z"/>
<path style="fill:#bed3ec; stroke:none;" d="M0 160L0 191C17.3179 191 21 186.314 21 169L23 169L23 181C26.5762 179.563 26.8773 177.714 27 174L30 180C34.8478 177.035 38.6472 163.608 31.7863 160.603C23.7421 157.08 8.77027 160 0 160z"/>
<path style="fill:#8e8382; stroke:none;" d="M474.333 162.667L474.667 163.333L474.333 162.667z"/>
<path style="fill:#ccb374; stroke:none;" d="M256 171C253.53 170.289 251.317 169.365 248.998 168.244C247.695 167.613 246.383 166.829 245.005 166.371C232.441 162.194 253.692 184.784 256 171z"/>
<path style="fill:#73645e; stroke:none;" d="M35 168L35 171L36 171L35 168z"/>
<path style="fill:#aaadae; stroke:none;" d="M21 169L21 183L22 183L23 169L21 169z"/>
<path style="fill:#878082; stroke:none;" d="M34.3333 171.667L34.6667 172.333L34.3333 171.667z"/>
<path style="fill:#c3ad78; stroke:none;" d="M392 171C393.917 182.785 416.17 181.848 402.995 174.746C401.681 174.038 400.354 173.314 399.002 172.681C396.637 171.573 394.576 171.171 392 171z"/>
<path style="fill:#7c541d; stroke:none;" d="M122.019 173.858C109.487 179.158 127.631 197.717 132.286 202.999C146.645 219.289 168.973 231.893 191 231.999C196.517 232.026 204.015 233.173 208.852 229.91C214.866 225.854 209.752 218.208 204.96 215.688C196.85 211.424 185.013 214.099 176 211.11C158.807 205.41 149.509 192.223 138.482 179.043C134.578 174.376 128.05 171.308 122.019 173.858z"/>
<path style="fill:#ceb677; stroke:none;" d="M344 195C345.214 189.726 329.987 172.977 324.337 173.921C319.339 174.757 328.006 183.003 329.001 183.999C330.636 185.638 332.271 187.286 334 188.826C337.065 191.557 340.113 193.711 344 195z"/>
<path style="fill:#000000; stroke:none;" d="M1286 179L1271 181L1275 173C1267.56 173.941 1253.7 172.966 1247.39 177.027C1243.37 179.619 1241.4 186.811 1239.58 191C1234.37 202.934 1228.62 214.678 1224.34 227C1222.31 232.854 1212.98 252.868 1219.6 257.968C1226.43 263.226 1239.79 247.181 1243.42 243C1248.62 237.021 1253.97 230.288 1260 225.148C1262.33 223.159 1265.92 222.592 1267.93 220.401C1271.13 216.897 1272.54 210.328 1274.42 206C1278.27 197.152 1283.76 188.413 1286 179z"/>
<path style="fill:#968770; stroke:none;" d="M27 174L27 180L30 180L27 174z"/>
<path style="fill:#623f11; stroke:none;" d="M116 178C105.044 191.854 110.971 202.957 122.09 215C136.783 230.914 155.768 244.607 178 246.829C193.336 248.363 208.821 245.826 212 228C172.942 247.956 134.484 206.835 116 178z"/>
<path style="fill:#664312; stroke:none;" d="M32 179L28 204L27 204L20 185C9.37139 192.051 23.0639 212.62 25 222L26 222L27 207L28 207C28.9284 218.367 32.1259 229.543 32.9105 241C33.465 249.097 32.3911 256.967 32.0394 265C31.7812 270.896 31.7014 276.95 35.7894 281.671C40.5318 287.147 51.6563 289.071 55.9722 281.786C59.2732 276.215 57 264.344 57 258C57 235.642 56.1331 189.444 32 179z"/>
<path style="fill:#7c541d; stroke:none;" d="M19 184L27 204L28 204L32 180L19 184z"/>
<path style="fill:#979186; stroke:none;" d="M0 191L0 192L16 192L0 191z"/>
<path style="fill:#7e6748; stroke:none;" d="M0 192L0 196L16 196L16 192L0 192z"/>
<path style="fill:#a4a5a5; stroke:none;" d="M0 196L0 197L16 197L0 196z"/>
<path style="fill:#ca6494; stroke:none;" d="M837 243L836 243C839.82 226.955 837.263 187.543 811.001 202.533C800.59 208.475 810.956 211.117 808.079 217.826C804.127 227.043 785.796 232.293 777 234C777 225.908 777.679 217.525 774.081 210C768.343 198 753.41 193.394 742.04 200.483C736.822 203.736 735.837 209.408 731.725 213.486C716.482 228.602 704.981 242.768 702.286 265C699.665 286.631 716.411 300.327 737 293.64C752.96 288.457 765.361 274.259 771.547 259C772.884 255.702 773.456 251.246 775.843 248.51C778.784 245.139 785.04 244.472 789 242.688C797.251 238.971 804.458 234.257 811 228C807.959 236.979 806.931 246.783 804.627 256C803.032 262.376 801.225 268.68 799.421 275C798.112 279.586 792.92 289.06 794.697 293.682C796.966 299.587 817.377 295.877 820.957 292.772C833.253 282.104 836.335 261.176 845.789 248C848.787 243.821 856.998 232.862 862.837 233.256C868.427 233.633 862.152 245.585 861.203 248C856.827 259.139 844.889 284.059 855.279 294.772C863.226 302.967 876.311 295.791 882.714 289.572C895.841 276.822 904.183 259.709 913.15 244C917.19 236.925 922.798 230.393 923 222C916.055 222.525 913.071 228.004 908.919 233C902.14 241.157 895.183 252.004 885 256C885.046 239.424 901.232 217.205 893.991 201.105C890.123 192.506 877.764 196.987 872 200.761C857.508 210.248 844.378 227.404 837 243z"/>
<path style="fill:#bed3ec; stroke:none;" d="M0 197L0 216L23 216C20.659 200.089 14.9168 197 0 197z"/>
<path style="fill:#623f11; stroke:none;" d="M219 201C211.371 211.852 218.685 220.576 223.334 231C227.602 240.571 230.45 250.802 232.662 261C234.431 269.156 232.957 278.881 243 279L235.335 242L219 201z"/>
<path style="fill:#55321c; stroke:none;" d="M214 207C208.688 218.382 215.014 225.506 219.576 236C225.089 248.683 230.703 264.053 231 278L221 277C224.919 292.149 224.538 320.369 211 331L211 332C225.41 332 234.933 326.094 248 320.865C252.01 319.261 258.014 320.104 261.319 317.397C270.029 310.263 275.545 292.608 278 282L248 280L236.603 277.397L231.486 254L214 207z"/>
<path style="fill:#afb7bd; stroke:none;" d="M494 207L494 208L512 208L494 207z"/>
<path style="fill:#9e9d9c; stroke:none;" d="M21.3333 208.667L21.6667 209.333L21.3333 208.667z"/>
<path style="fill:#9c9282; stroke:none;" d="M494 208L494 209L512 209L494 208z"/>
<path style="fill:#8f795a; stroke:none;" d="M494 209L494 211L512 211L512 209L494 209z"/>
<path style="fill:#969087; stroke:none;" d="M22.3333 211.667L22.6667 212.333L22.3333 211.667z"/>
<path style="fill:#7c541d; stroke:none;" d="M452 225C446.581 222.677 441.435 219.745 436 217.427C432.759 216.045 429.42 214.635 426 213.761C418.125 211.749 408.28 215.65 414.009 224.985C417.166 230.127 432.816 238.464 439 237.045C444.209 235.849 449.096 229.123 452 225z"/>
<path style="fill:#806a4b; stroke:none;" d="M494 213L494 214L512 214L494 213z"/>
<path style="fill:#a5a7a9; stroke:none;" d="M494 216L512 215C507.802 213.239 497.154 212.391 494 216z"/>
<path style="fill:#abb4bd; stroke:none;" d="M23 215L0 216L0 217L23 217L23 219L0 219L0 220L24 220L23 215z"/>
<path style="fill:#bed3ec; stroke:none;" d="M492 226L512 226L512 215C501.702 215 492.118 212.95 492 226M0 217L0 219L23 219L23 217L0 217z"/>
<path style="fill:#98948d; stroke:none;" d="M24 219C20.31 224.692 6.23201 222 0 222L0 223L25 223L25 227L26 227L24 219z"/>
<path style="fill:#c0d6f0; stroke:none;" d="M0 220L0 222L24 222L24 220L0 220z"/>
<path style="fill:#a0a09c; stroke:none;" d="M491 220L490 225L492 225L491 220z"/>
<path style="fill:#000000; stroke:none;" d="M1339 245C1347.62 243.005 1355.92 238.771 1361.79 231.985C1363.6 229.883 1367.57 224.613 1364.38 222.032C1361.95 220.058 1357.52 221.798 1355 222.7C1345.26 226.182 1339.24 234.773 1339 245z"/>
<path style="fill:#b1bed0; stroke:none;" d="M489 222L487 228L512 228L512 226C504.275 226 494.806 227.975 489 222z"/>
<path style="fill:#abb5be; stroke:none;" d="M0 223L0 224L25 224L0 223z"/>
<path style="fill:#7c541d; stroke:none;" d="M278 223.44C266.474 225.311 265.508 236.009 276.004 241.312C283.125 244.91 292.171 240.055 300 241.325C311.437 243.18 322.382 247.27 332 253.749C339.32 258.68 345.147 266.622 354.981 263.146C369.971 257.847 347.302 241.811 342 238.436C323.643 226.748 299.832 219.897 278 223.44z"/>
<path style="fill:#55321c; stroke:none;" d="M406 223C399.204 239.039 411.117 243.672 423 250C417.531 252.357 403.039 257.636 400.603 263.214C396.224 273.242 403.989 289.276 396.397 298.61C389.872 306.633 378.068 301.296 374.894 293C372.519 286.794 374.999 278.532 375 272L371 272L369 244L368 244C362.062 253.773 367.55 263.552 368 274L350 277L354 272C335.573 275.118 325.561 257.917 308 253.351C297.189 250.54 281.311 255.255 272.004 250.543C265.094 247.045 264.005 240.987 264 234C257.51 239.727 259.253 251.571 267.015 255.682C274.693 259.749 286.42 254.759 295 256.515C312.85 260.168 327.165 269.961 340.985 281.379C354.579 292.611 347.275 318.908 364 325.648C386.088 334.55 401.356 307.536 421 304.333C433.652 302.269 443.868 314.88 457 311C442.186 301.035 428.206 293.978 417.156 279C412.593 272.816 407.163 261.249 420 261.188C424.634 261.165 428.57 263.602 431.485 267.044C441.787 279.206 474.602 314.599 482.862 281C484.054 276.149 484.374 270.95 485 266C470.597 265.951 459.133 250.093 447 243.012C437.543 237.492 436.756 244.2 428 244.167C414.497 244.117 410.105 232.688 406 223z"/>
<path style="fill:#bed3ec; stroke:none;" d="M0 224L0 226L25 226L25 224L0 224z"/>
<path style="fill:#000000; stroke:none;" d="M1123 224.532C1114.65 226.521 1108.33 233.939 1106.16 242C1103.7 251.136 1109.67 257.427 1119 255.319C1128.61 253.148 1136.77 244.646 1138.87 235C1140.91 225.621 1130.04 222.855 1123 224.532z"/>
<path style="fill:#a8b0c0; stroke:none;" d="M0 226L0 228L25 228L25 226L0 226z"/>
<path style="fill:#939196; stroke:none;" d="M0 228L0 231L25 230L25 228L0 228z"/>
<path style="fill:#623f11; stroke:none;" d="M267 228C263.204 234.777 262.106 244.092 269.094 249.347C278.078 256.104 296.756 250.17 308 253.623C320.58 257.486 332.631 272.901 345 273.772C353.108 274.342 358.273 268.183 360 261C341.01 267.318 331.038 249.103 313 244.158C306.027 242.247 299.251 240.826 292 241.015C287.742 241.126 283.175 243.315 279 242.106C271.782 240.015 269.92 233.919 267 228z"/>
<path style="fill:#97979c; stroke:none;" d="M487 228L487 230L512 230L512 228L487 228z"/>
<path style="fill:#7b6f6b; stroke:none;" d="M4 230L4 231L25 240L25 230L4 230z"/>
<path style="fill:#837571; stroke:none;" d="M487 230L487 240L512 231L487 230z"/>
<path style="fill:#ffffff; stroke:none;" d="M732 230C727.668 238.136 721.499 257.897 736 259C736 249.713 738.282 237.619 732 230z"/>
<path style="fill:#c1bdda; stroke:none;" d="M0 231L0 257L1 257L25 240L0 231z"/>
<path style="fill:#bfcee7; stroke:none;" d="M508 252L508 231C494.742 234.82 494.742 248.18 508 252z"/>
<path style="fill:#c4a3c2; stroke:none;" d="M508 231C508 238.199 505.294 250.993 511 256L511 231L508 231z"/>
<path style="fill:#bfc8e3; stroke:none;" d="M511 231L511 257L512 257L511 231z"/>
<path style="fill:#000000; stroke:none;" d="M1263 232L1264 233L1263 232z"/>
<path style="fill:#7c541d; stroke:none;" d="M376 271C381.572 269.68 394.447 267.045 397.971 262.298C406.716 250.519 383.283 221.791 374.042 238.214C372.101 241.665 374.492 246.47 375.192 250C376.552 256.857 376 264.041 376 271z"/>
<path style="fill:#c2b5d2; stroke:none;" d="M497 236L487 240L498 247L497 236z"/>
<path style="fill:#000000; stroke:none;" d="M736 237L736 259C744.183 258.28 752.132 253.301 756 246L736 237z"/>
<path style="fill:#664312; stroke:none;" d="M372 239C365.728 248.503 371 261.342 371 272L375 272C374.995 279.113 372.036 288.344 375.318 294.996C378.882 302.22 391.639 306.764 396.976 298.61C402.713 289.844 400 271.995 400 262L376 271C376 260.47 377.212 248.591 372 239z"/>
<path style="fill:#cb6990; stroke:none;" d="M24 241C17.5644 245.893 5.113 248.772 1.17978 256.093C-4.5669 266.791 21.1277 276.759 28 281L25.1698 256L24 241M487 241L490.807 263L484 281C490.482 276.964 511.704 268.636 511.704 260C511.704 250.825 493.547 244.955 487 241z"/>
<path style="fill:#664312; stroke:none;" d="M120.019 249.703C111.386 252.754 116.419 262.558 122.015 265.991C126.566 268.782 131.967 267.647 137 268.439C147.612 270.109 165.963 282.009 175.941 276.543C179.099 274.814 181.19 270.73 177.681 268.139C173.662 265.17 166.728 264.318 162 262.806C150.625 259.165 131.918 245.497 120.019 249.703z"/>
<path style="fill:#7c541d; stroke:none;" d="M131 250L131 251L179 268C172.723 254.661 144.397 250.111 131 250M221 276C219.542 271.41 218.907 266.25 216.583 262.001C206.463 243.504 184.27 260.547 198.563 272.012C203.58 276.036 214.869 275.983 221 276z"/>
<path style="fill:#664312; stroke:none;" d="M473 296C460.648 293.175 451.002 288.103 442.015 278.996C437.105 274.021 433.363 265.698 426.985 262.573C420.813 259.548 409.296 260.714 411.424 270C414.566 283.716 432.614 297.76 444 304.547C447.761 306.789 453.407 310.653 458 310.019C464.281 309.151 470.304 301.198 473 296z"/>
<path style="fill:#e2b1cf; stroke:none;" d="M0 263C4.30897 272.163 14.6141 273.599 22 279.39C33.7663 288.617 40.9926 312.076 57 314.775C72.2367 317.345 82.241 303.066 98 310.039C110.696 315.658 122.444 330.487 137 330.942C151.021 331.38 160.733 317.846 175 320.329C190.902 323.096 203.079 337.288 220 335.907C232.497 334.886 242.459 322.397 255 322.198C271.606 321.935 282.874 337.528 301 334.787C313.542 332.89 323.445 322.019 336 320.21C350.687 318.093 360.8 332.973 375 330.675C392.464 327.85 403.217 310.932 420 307.391C431.903 304.88 442.119 317.988 454 315.453C464.861 313.136 471.827 301.362 477.721 293C484.916 282.792 497.173 271.328 510 269L512 263C503.102 269.059 491.683 273.297 484.174 281.09C474.454 291.177 469.065 306.258 455 311.633C443.648 315.971 430.123 302.553 417 305.39C401.144 308.819 390.671 325.356 374 327.545C361.601 329.173 350.496 316.384 337 317.04C321.71 317.783 309.561 332.367 294 332.526C281.492 332.654 271.399 321.41 259 320.171C243.102 318.581 232.127 332.814 217 332.642C201.871 332.47 189.9 318.793 175 317.174C160.623 315.611 150.4 329.372 137 327.632C119.975 325.422 109.069 306.72 92 305.104C80.186 303.986 66.5575 315.601 56 311.301C42.6404 305.86 37.2468 290.795 27.8264 281.093C20.3488 273.392 8.84614 269.023 0 263z"/>
<path style="fill:#664312; stroke:none;" d="M77.0193 264.653C64.638 268.705 79.587 282.801 84 286.91C97.4993 299.481 113.319 310.339 130 318.219C136.454 321.268 144.785 325.295 151.941 321.91C159.389 318.389 153.704 310.102 148.985 306.969C131.674 295.476 113.864 288.152 98 273.83C91.9845 268.4 86.018 261.707 77.0193 264.653z"/>
<path style="fill:#bed3ec; stroke:none;" d="M0 265L0 592L66 592L66 508L86 508C83.9859 487.903 72.0012 464.997 65.0532 446C50.9728 407.502 38.0921 368.568 24.2168 330C18.8355 315.042 13.8191 299.964 8.41358 285C6.0708 278.515 4.61252 270.228 0 265M511 265L491.495 319L453.309 428L434.309 482L426 509L446 508L446 592L512 592L512 361L512 294L511 265z"/>
<path style="fill:#d07eac; stroke:none;" d="M2 267L19 318L31.3333 336L55.6667 370L69 385C66.9933 370.098 60.9425 355.565 57.3387 341C55.0775 331.861 53.7053 319.164 49.0617 311C37.7477 291.109 20.8635 278.63 2 267z"/>
<path style="fill:#7c541d; stroke:none;" d="M280 282L307 282C306.009 263.677 281.804 263.897 280 282z"/>
<path style="fill:#d07eac; stroke:none;" d="M508 268C497.812 275.642 486.786 278.945 479.185 290C473.542 298.208 473.016 310.54 470.406 320C463.568 344.787 455.762 369.727 451 395L473 375C476.838 349.012 490.883 321.833 499.505 297C502.091 289.549 510.269 275.674 508 268z"/>
<path style="fill:#664312; stroke:none;" d="M198 273C201.419 291.416 192.558 304.95 188 322C194.129 324.552 204.984 332.516 211.895 330.303C216.351 328.877 217.93 321.953 218.975 318C221.524 308.35 228.265 286.568 220.836 277.603C217.749 273.879 202.786 273.209 198 273M281 274L271.688 299L261 320C267.133 321.767 277.562 330.722 283.816 329.184C287.674 328.234 290.164 322.073 292.039 319C298.742 308.012 305.704 295.013 307 282L280 282L281 274z"/>
<path style="fill:#8a464b; stroke:none;" d="M483 277L483 282L484 282L483 277z"/>
<path style="fill:#664312; stroke:none;" d="M332 318C341.862 314.874 346.708 318.323 356 321C354.391 310.067 351.678 291.32 343.786 283.113C340.519 279.715 325.721 276.838 323.788 283.228C322.744 286.678 325.637 291.75 326.653 295C329.027 302.598 331 310.098 332 318z"/>
<path style="fill:#55321c; stroke:none;" d="M307 282L285 331C298.298 333.469 308.155 329.074 320 323.464C323.313 321.895 330.75 319.936 331.512 315.786C333.655 304.128 322.95 292.617 324 281L307 282z"/>
<path style="fill:#cb6a9a; stroke:none;" d="M476 295L457.72 316.039L451.241 342L435 409L449 399L419 516C429.384 507.451 431.996 489.228 436.414 477C444.577 454.405 452.398 431.676 460.343 409C464.311 397.675 469.987 385.84 472 374L471 374L451 395L468.781 326L476 295z"/>
<path style="fill:#b0858e; stroke:none;" d="M84 304L84 305L93 305L84 304z"/>
<path style="fill:#af8391; stroke:none;" d="M419 304L419 305L428 305L419 304z"/>
<path style="fill:#d07eac; stroke:none;" d="M83 307L83 308C91.6714 313.3 91.2257 336.638 93.5795 346C97.791 362.751 101.28 380.04 104.539 397C106.166 405.462 106.204 417.086 110.43 424.7C112.742 428.865 118.121 431.777 122 434.305C131.694 440.621 143.446 448.947 155 451C152.695 422.041 146.582 391.602 141.001 363C139.393 354.76 140.571 339.394 135.821 332.499C133.246 328.762 125.855 326.871 122 324.55C109.008 316.729 98.9461 307.01 83 307M418 307L418 308C422.845 314.652 416.325 332.989 415.282 341C411.44 370.492 403.246 401.311 403 431C412.594 427.963 428.466 418.275 434.143 409.826C439.656 401.622 440.578 386.592 442.662 377C447.233 355.96 454.396 335.203 458 314C444.527 318.234 431.861 307.002 418 307z"/>
<path style="fill:#cb6a9a; stroke:none;" d="M50 312L69 385C50.9571 366.145 31.3859 341.102 21 317L20 317C21.769 334.289 32.0706 353.608 37.9498 370C50.4598 404.879 63.3034 439.803 74.8364 475C81.4359 495.14 86.7266 517.819 108 527C97.1505 481.217 77.8505 435.596 71 389C83.1759 401.433 94.702 416.167 110 425L86 308C72.0012 308.61 64.3053 317.078 50 312z"/>
<path style="fill:#ca6494; stroke:none;" d="M328 462L339 320L294 336L287 469L327 463C326.997 491.119 325.129 523.372 320 551C328.537 548.897 344.412 550.288 351.411 544.825C356.332 540.984 354.682 527.588 355.424 522C357.422 506.967 359.317 492.076 360.831 477C361.512 470.221 361.243 459.146 364.434 453.133C366.546 449.152 372.138 447.809 376 446.15C384.971 442.297 393.374 437.539 402 433L393.714 491L388 535C393.551 532.846 402.379 530.47 406.146 525.61C413.133 516.593 414.102 497.031 416.453 486C421.868 460.598 430.647 435.609 435 410L403 431L420 308C408.601 309.168 399.477 318.75 390 324.396C386.689 326.369 380.454 327.909 378.434 331.302C374.292 338.258 375.697 351.094 374.714 359C372.062 380.311 370.209 401.859 366.754 423C365.524 430.523 367.139 443.233 362.976 449.722C358.164 457.224 336.276 460.108 328 462z"/>
<path style="fill:#a2757c; stroke:none;" d="M67.6667 310.333L68.3333 310.667L67.6667 310.333z"/>
<path style="fill:#000000; stroke:none;" d="M672 310L672 341L673 341C680.526 330.495 689.996 323.205 702 318.398C706.901 316.435 718.443 315.323 720 310L672 310z"/>
<path style="fill:#d07eac; stroke:none;" d="M696 356C682.106 347.94 692.119 337.016 703 331.785C721.659 322.816 755.409 337.075 762 311C755.703 309.139 748.536 309.997 742 310C714.805 310.01 661.437 325.251 668.228 361.996C671.168 377.9 692.308 363.916 696 356z"/>
<path style="fill:#000000; stroke:none;" d="M761 310C760.811 322.906 746.806 328.358 736 327L736.143 350.961L738.528 359.039L736 386L737 386C739.276 376.419 751.321 355.466 763.982 362.028C781.152 370.926 758.742 387.521 750 391C763.165 398.082 782.509 378.844 775 366C777.293 364.964 779.579 363.569 782.002 362.865C799.788 357.693 788.544 385.163 788 392C802.062 385.438 809.407 366.451 815 353L807 353C810.354 348.248 814.607 348.169 818.363 344.486C827.007 336.011 825.397 327.629 840 327L833 343L860 339C852.233 352.399 841.648 345.639 830.39 351.564C826.89 353.406 825.626 358.637 824.14 362C820.006 371.35 812.96 383.511 815 394C829.74 389.293 834.678 371.641 847.043 363.858C858.946 356.366 864.975 371.888 865 381L885 372C883.408 381.876 872.248 383.361 865.418 388.275C861.414 391.156 860.002 398.029 857.073 401.996C848.845 413.136 827.038 419.967 826 400L825 400C819.131 407.702 800.614 422.654 798.419 403C797.984 399.102 799.281 394.815 800 391L799 391C795.591 398.207 789.929 407.005 783 411.257C777.989 414.332 772.294 411.761 771.228 405.996C770.693 403.099 771 399.935 771 397C761.926 403.525 748.321 423.304 737 409L736 409L736 417L1306 417L1306 379L1305 379C1299.44 389.451 1292.67 403.244 1282.99 410.431C1271.35 419.071 1267.12 405.339 1269.75 396C1271.1 391.166 1273.62 386.808 1275 382C1268.69 382.022 1258.37 384.386 1254.07 389.51C1247.74 397.06 1246.62 405.631 1237 410.811C1225.58 416.961 1216.11 410.311 1216 398L1215 398C1211.81 403.725 1194.32 424.449 1190.47 407.995C1188.5 399.542 1195.38 388.746 1198 381C1182.72 380.772 1182.28 406.578 1171.9 413.127C1158.58 421.523 1161.73 399.723 1164.31 394C1166.57 388.99 1169.18 384.5 1170 379C1154.23 382.184 1155.52 403.653 1143.96 411.397C1140.33 413.825 1135.15 413 1131 413L1136 393L1135 393C1130.92 401.62 1109.28 426.289 1108 403L1107 403C1099.91 413.053 1084.8 418.407 1085.02 401C1085.17 388.918 1091.93 376.203 1101.04 368.468C1106.65 363.701 1126.18 355.948 1125 370C1129.7 374.964 1122.29 386.29 1122 393C1128.87 391.614 1137.9 383.087 1139.43 376C1140.15 372.652 1136.68 369.305 1138.63 366.228C1141.38 361.879 1148.38 362.549 1151.27 366.228C1154.79 370.705 1154 377.683 1154 383L1155 383C1159.95 375.668 1164.91 367.167 1173 362.92C1179.55 359.48 1185.16 362.681 1185.9 370C1186.19 372.965 1186 376.023 1186 379L1187 379C1189.88 374.395 1209.04 351.439 1212.68 366.019C1214.72 374.211 1208.38 383.722 1208 392C1219.83 385.847 1225.83 370.915 1237.04 363.858C1244.15 359.387 1251.95 364.841 1254.2 372C1255.11 374.908 1254.99 377.991 1255 381L1259 380C1257.22 369.179 1266 358.266 1277 358L1276 368L1289.64 366.121L1289.38 373L1283 393L1306 375L1306 356L1104 356L1104 310L1088 310L1088 356L1072 356L1072 310L761 310z"/>
<path style="fill:#b0808b; stroke:none;" d="M445.667 311.333L446.333 311.667L445.667 311.333z"/>
<path style="fill:#b68293; stroke:none;" d="M58 312L58 313L62 313L58 312z"/>
<path style="fill:#b68590; stroke:none;" d="M449 312L449 313L454 313L449 312z"/>
<path style="fill:#b1818f; stroke:none;" d="M166 316L166 317L176 317L166 316z"/>
<path style="fill:#b9888d; stroke:none;" d="M336 316L336 317L346 317L336 316z"/>
<path style="fill:#a17178; stroke:none;" d="M177.667 317.333L178.333 317.667L177.667 317.333z"/>
<path style="fill:#b38285; stroke:none;" d="M346.667 317.333L347.333 317.667L346.667 317.333z"/>
<path style="fill:#ab7c87; stroke:none;" d="M251 319L251 320L261 320L251 319z"/>
<path style="fill:#ca6494; stroke:none;" d="M136 331L155 451C138.669 446.329 125.141 434.806 111 426C113.095 452.548 121.612 478.88 126.54 505C128.156 513.564 128.31 531.005 134.563 537.487C141.089 544.25 160.99 545.855 170 547L156 452L188 461L174 320L136 331z"/>
<path style="fill:#d07eac; stroke:none;" d="M174 320C174 352.964 181.643 386.099 183.91 419C184.607 429.111 186.051 438.956 187.285 449C187.672 452.151 187.101 457.835 189.028 460.436C193.223 466.1 214.281 466.711 221 467L214 336L174 320z"/>
<path style="fill:#ad7e8a; stroke:none;" d="M248.667 320.333L249.333 320.667L248.667 320.333z"/>
<path style="fill:#b48688; stroke:none;" d="M261 320L261 321L264 321L261 320z"/>
<path style="fill:#d07eac; stroke:none;" d="M339 320L328 462C336.08 460.812 358.017 457.389 362.976 450.49C367.661 443.973 365.794 428.874 367.261 421C372.743 391.567 375.639 359.915 378 330C363.403 332.708 353.441 320.041 339 320M251 322L251 323L256 323L256 470L287 469L294 336L299 336C294.302 334.029 288.91 335.393 284 333.532C272.651 329.231 263.594 322.035 251 322z"/>
<path style="fill:#ca6494; stroke:none;" d="M214 336L221 467L189 462L195.05 529L198.603 550.821L225 554L222.09 494L221 468L256 470L256 323L214 336z"/>
<path style="fill:#946766; stroke:none;" d="M132 326L132 327L135 327L132 326z"/>
<path style="fill:#9e7275; stroke:none;" d="M144.667 326.333L145.333 326.667L144.667 326.333z"/>
<path style="fill:#a97b85; stroke:none;" d="M378.667 326.333L379.333 326.667L378.667 326.333z"/>
<path style="fill:#996c6b; stroke:none;" d="M135 327L135 328L142 328L135 327z"/>
<path style="fill:#9e6c75; stroke:none;" d="M368 327L368 328L375 328L368 327z"/>
<path style="fill:#000000; stroke:none;" d="M696 356C690.237 364.18 682.356 370.437 672 368L672 412C680.97 404.587 689.402 389.657 694 379C690.798 379.759 680.304 385.622 678.712 380.812C676.01 372.652 696.074 367.084 700.957 364.319C710.531 358.898 719.905 337.644 720 327C710.454 328.233 700.462 330.788 693.301 337.619C686.397 344.203 686.698 352.383 696 356z"/>
<path style="fill:#ffffff; stroke:none;" d="M720 327L720 332C739.775 320.715 726.069 347.059 724 356L736 354L736 327L720 327z"/>
<path style="fill:#d07eac; stroke:none;" d="M807 353L815 353C806.821 367.067 802.041 382.103 788 392C789.004 384.231 800.279 356.702 781.005 362.85C778.808 363.55 776.932 364.786 775 366C780.28 378.986 764.407 396.646 750 391C758.254 388.607 765.886 384.682 768.891 376C772.396 365.876 763.96 357.977 754 362.009C741.082 367.239 734.141 385.989 734.455 399C734.792 412.958 745.476 418.15 757 410.225C762.377 406.528 766.471 401.621 771 397C771 400.688 770.254 405.431 771.742 408.891C773.804 413.684 780.113 413.669 783.999 411.258C790.548 407.194 796.689 398.254 799 391L800 391C798.669 396.401 796.946 402.708 799.573 407.981C806.053 420.99 820.966 407.777 825 400L826 400C826.42 417.862 846.333 415.329 855.532 404.907C859.562 400.341 860.862 392.608 865.418 388.843C872.168 383.265 884.146 382.848 885 372L865 381C864.993 371.128 858.908 355.462 846.104 363.858C833.984 371.806 828.637 387.511 815 394C813.857 383.012 820.314 371.796 824.576 362C826.108 358.478 827.488 353.377 831.213 351.564C841.782 346.42 854.6 352.898 860 339L833 343L840 327C825.525 327.299 826.565 334.628 818.363 343.721C814.522 347.979 809.819 347.266 807 353M694 379L671 416C674.349 416.99 677.51 417.004 681 417C709.182 416.964 702.532 388.726 717.699 373.564C723.401 367.864 742.289 372.012 738.642 357.228C737.292 351.758 727.597 355.114 724 356C725.201 352.309 726.433 348.63 727.808 345C729.219 341.273 732.634 335.213 731.879 331.148C730.917 325.973 723.651 328.991 721.39 331.279C713.275 339.489 711.873 353.405 703.621 361.725C699.88 365.498 693.753 367.279 689 369.436C684.935 371.281 675.78 375.65 678.619 381.667C680.679 386.035 690.877 380.056 694 379z"/>
<path style="fill:#9c6f62; stroke:none;" d="M204.667 329.333L205.333 329.667L204.667 329.333z"/>
<path style="fill:#a1737b; stroke:none;" d="M228.667 329.333L229.333 329.667L228.667 329.333z"/>
<path style="fill:#966859; stroke:none;" d="M207.667 330.333L208.333 330.667L207.667 330.333z"/>
<path style="fill:#b1828f; stroke:none;" d="M214 332L214 333L220 333L214 332M291 332L291 333L296 333L291 332z"/>
<path style="fill:#d07eac; stroke:none;" d="M798.999 333.812C789.032 333.684 777.905 354.503 791.005 355.809C802.584 356.963 812.717 333.989 798.999 333.812M1259 380L1255 381C1255 378.017 1255.18 374.922 1254.47 372C1252.52 363.993 1243.53 358.992 1236.1 363.858C1225.24 370.982 1218.37 384.079 1208 392C1208.72 383.757 1215.94 372.28 1212.4 364.148C1207.17 352.178 1189.14 373.946 1187 379L1186 379C1186 374.453 1187.02 368.283 1184.54 364.228C1176.2 350.575 1158.04 376.565 1155 383L1154 383C1154 376.27 1150.36 352.33 1138.38 365.434C1135.25 368.856 1139.95 372.212 1139 376C1137.29 382.757 1128.31 390.855 1122 393C1122.5 386.888 1130.69 373.735 1125 370C1126.94 361.206 1116.28 360.824 1110 362.638C1100.7 365.324 1093.27 374.567 1089.32 383C1086 390.1 1082.69 401.241 1085.89 408.942C1090.41 419.787 1104.06 409.299 1107 403L1108 403C1108.2 411.236 1114.12 416.35 1121.96 411.12C1127.74 407.266 1132.92 399.535 1135 393L1136 393L1131 413C1135.32 413 1141.16 414.011 1144.9 411.397C1156.31 403.404 1154.93 384.126 1170 379C1168.72 384.38 1166.03 388.956 1163.87 394C1161.09 400.507 1158.94 422.786 1172.79 413.141C1183.82 405.457 1182.44 384.551 1198 381C1194.58 388.321 1187.34 401.698 1190.74 409.941C1196.39 423.608 1212.62 404.279 1215 398L1216 398C1216.04 411.14 1225.82 417.377 1238 410.811C1247.59 405.642 1248.03 396.552 1254.7 389.51C1259.06 384.906 1268.89 382.068 1275 382C1273.34 386.003 1271.31 389.838 1270.04 394C1267.19 403.339 1269.29 420.075 1282.99 411.12C1292.2 405.096 1304.81 385.978 1306 375L1283 393L1289.95 373L1290.38 366.042L1276 368L1277 358C1265.69 358.102 1256.37 368.539 1259 380M931 396L932 396C932.002 410.139 941.137 418.501 954.999 410.235C963.806 404.984 964.358 396.208 970.699 389.51C973.231 386.836 977.819 385.808 981 384L974 413C978.325 413 984.16 414.011 987.895 411.397C999.312 403.404 997.93 384.126 1013 379C1011.72 384.38 1009.03 388.956 1006.87 394C1004.09 400.507 1001.94 422.786 1015.79 413.141C1026.82 405.456 1025.44 384.551 1041 381C1039.17 384.913 1037.53 388.936 1036.05 393C1032.68 402.33 1032.83 422.376 1048 411.427C1057.18 404.8 1069.53 385.26 1071 374L1051 392C1051.72 383.757 1058.94 372.28 1055.4 364.148C1050.17 352.178 1032.14 373.946 1030 379L1029 379C1029 374.453 1030.02 368.283 1027.54 364.228C1019.2 350.575 1001.04 376.565 998 383L997 383C997 376.269 993.359 352.331 981.377 365.434C978.619 368.449 981.983 370.768 981.813 373.957C981.567 378.584 974.549 380.157 971 381C970.993 371.128 964.908 355.462 952.104 363.858C941.599 370.747 927.621 397.199 911.873 391.647C899.998 387.459 914.063 368.279 923 379L925 379C927.211 375.719 931.311 371.259 931.034 367.043C930.537 359.491 917.708 360.102 913 362.457C905.678 366.119 900.765 374.553 898.09 382C895.178 390.108 891.997 403.594 898.419 410.853C908.442 422.183 926.444 404.782 931 396z"/>
<path style="fill:#000000; stroke:none;" d="M717 372C712.538 385.107 704.296 413.23 689 416L689 417L720 417L720 372L717 372M746 386C752.278 384.187 756.957 380.848 760 375C752.423 373.427 747.29 378.881 746 386M1104 376.743C1095.98 379.796 1094.21 395.143 1105 390.767C1113.47 387.329 1115.73 372.281 1104 376.743M841 380C836.811 391.494 844.218 399.182 853 388L841 380M947 380C942.811 391.494 950.218 399.182 959 388L947 380M1231 380C1226.81 391.494 1234.22 399.182 1243 388L1231 380z"/>
<path style="fill:#c65685; stroke:none;" d="M71 389C71.9151 399.495 76.1468 409.822 78.6613 420C84.2733 442.717 90.3964 465.54 96.9645 488C100.345 499.561 101.384 516.659 108.275 526.61C112.796 533.139 126.654 536.3 134 538L118.31 465L110.566 427.039L97 414.05L71 389M407 525C420.861 520.403 421.732 505.357 424.742 493C432.166 462.528 446.273 430.238 449 399C433.399 406.232 431.91 420.954 428.639 436C422.158 465.812 413.187 495.102 407 525M353 545C361.205 543.307 381.694 541.333 386.972 534.298C391.613 528.113 391.379 509.771 392.169 502C394.492 479.135 397.809 455.577 402 433L377 445.28L364.938 451.498L360.715 477L353 545M156 452C156.015 474.878 161.918 500.544 166.4 523C167.64 529.217 166.727 541.329 170.988 546.262C174.952 550.849 191.197 550.88 197 551L189 461L156 452M287 469L282 554L307 552.011L319.258 549.976L322 528L327 463L287 469M221 468L225 554L256 555L256 470L221 468z"/>
<path style="fill:#cb6a9a; stroke:none;" d="M256 470L256 555L282 554L287 469L256 470z"/>
<path style="fill:#e3e3e3; stroke:none;" d="M66 508L66 592L446 592L446 508C440.078 508 431.706 506.498 426.184 508.894C420.44 511.386 416.275 519.073 411 522.791C400.259 530.361 387.492 535.277 375 539.115C329.917 552.966 281.805 555.078 235 555C198.447 554.939 157.259 547.461 123 534.189C113.792 530.622 104.632 525.866 97.0039 519.536C93.4738 516.606 90.6909 510.475 86.6211 508.603C81.3083 506.16 71.8005 508 66 508z"/>
<path style="fill:#d7a4b9; stroke:none;" d="M180 549L180 550L185 550L180 549z"/>
<path style="fill:#dbb4c6; stroke:none;" d="M203 552L203 553L212 553L203 552z"/>
<path style="fill:#d8b4c5; stroke:none;" d="M226 554L226 555L244 555L226 554z"/>
</svg>
